<?xml version="1.0" encoding="utf-8"?>
<!-- Generator: Adobe Illustrator 24.0.2, SVG Export Plug-In . SVG Version: 6.00 Build 0)  -->
<svg version="1.1" id="Ebene_1" xmlns="http://www.w3.org/2000/svg" xmlns:xlink="http://www.w3.org/1999/xlink" x="0px" y="0px"
	 viewBox="0 0 140 34" style="enable-background:new 0 0 140 34;" xml:space="preserve">
<g>
	<g>
		<path d="M6.4,26c-0.8,0.5-1.3,0.6-2.3,0.6c-1.6,0-2.7-0.8-2.7-3.2v-8.3H0v-0.4c0,0,0-0.5,0.2-0.6c0.4-0.2,0.8-0.2,1.1-0.6
			c0.2-0.3,0.2-1,0.2-1v-1.2c0,0,0-0.8,0.3-1c0.2-0.1,0.6-0.2,0.6-0.2l1.3-0.1v3.7h2.6v1.3H3.7V23c0,1,0.3,2.2,1.5,2.2
			c0.5,0,1.3-0.5,1.3-0.5L7,25.6L6.4,26z"/>
		<path d="M16.1,26.1v-0.4c0,0,0-0.4,0.2-0.5c0.3-0.2,0.6-0.1,0.8-0.3c0.2-0.3,0.2-0.5,0.2-0.8v-6.7c0-1.3-0.6-2.6-2.3-2.5
			c-1.1,0-2,0.5-2.6,1L12.1,16v7.9c0,0.3,0,0.6,0.2,0.8c0.3,0.3,0.7,0.2,1,0.4c0.2,0.1,0.2,0.3,0.2,0.5v0.5h-5v-0.5
			c0,0-0.1-0.3,0.1-0.5c0.3-0.3,0.5-0.1,0.8-0.4c0.3-0.2,0.3-0.5,0.3-0.8V10.2c0-0.4,0-0.8-0.3-1.1C9.2,8.8,8.9,8.9,8.6,8.7
			C8.5,8.5,8.4,8.4,8.4,8.3V7.9h3.7v6.8l0.3-0.2c1.1-0.7,1.9-1.1,3.3-1.1c2.1,0,4,0.9,4,3.4V24c0,0.5,0,0.5,0.3,0.8
			c0.3,0.2,0.5,0.2,0.8,0.3c0.2,0.1,0.2,0.4,0.2,0.6v0.4H16.1z"/>
		<path d="M28.3,26.6c-3.8,0-6.4-3.2-6.3-6.7c0.1-3.8,2.6-6.4,6.1-6.4c3.2,0,5.4,2.7,5.1,6.1h-8.6c0,0-0.1,5.7,4.3,5.7
			c1.6,0,2.9-0.9,3.7-2l0.9,0.7C32.1,25.7,30.5,26.5,28.3,26.6z M27.8,14.6c-2.9,0.1-3.1,3.7-3.1,3.7h5.8
			C30.6,18.3,30.8,14.5,27.8,14.6z"/>
	</g>
	<path d="M52.3,25.9H42.2v-0.7c0-0.3,0-0.5,0.2-0.7c0.5-0.4,0.7-0.1,1.4-0.6c0.5-0.3,0.4-1.9,0.4-1.9v-19c0-0.5,0-0.9-0.4-1.2
		c-0.2-0.3-0.8-0.3-1.2-0.5c-0.2-0.1-0.2-0.6-0.2-0.7V0h11c6.5,0,7.5,4,7.5,5.8c0,3-1.8,5-4.6,5.9l-1.5,0.5l1.5,0.3
		c0.1,0,6.2,0.7,6.2,6.4C62.5,26.7,52.4,25.9,52.3,25.9z M52.1,13.2h-4v11.1h4.6c3.1,0,5.7-1.4,5.7-5.6
		C58.4,14.3,55.3,13.2,52.1,13.2z M52.2,1.6h-4.1v10.1h3.6c2.9,0,5.2-1.8,5.3-5.3C57,2.8,54.8,1.6,52.2,1.6z"/>
	<path d="M63.3,25.9v-0.7c0-0.2,0-0.4,0.2-0.6c0.4-0.4,0.9-0.2,1.3-0.6c0.3-0.4,0.4-0.8,0.4-1.3V3.3c0-0.5,0-0.8-0.3-1.2
		c-0.3-0.4-0.7-0.4-1.2-0.6c-0.2-0.1-0.3-0.4-0.3-0.7V0h5.1v22.7c0,0.6,0.1,1,0.5,1.4c0.4,0.4,0.9,0.2,1.3,0.6
		c0.2,0.2,0.2,0.4,0.2,0.6v0.7H63.3z"/>
	<path d="M80.2,26.6c-5.3,0.1-8.7-4.5-8.7-9.4c0-4.9,3.5-9.3,8.7-9.3c5.3,0,8.5,4.4,8.5,9.3C88.8,22,85.7,26.5,80.2,26.6z M80.2,9.1
		c-3.8,0-4.8,4.2-4.9,7.8c-0.1,3.7,1.3,8.4,4.9,8.3c4-0.1,4.7-4.5,4.7-8.1C84.9,13.5,84.2,9.1,80.2,9.1z"/>
	<path d="M105.8,10c-1.1,0-1.4-0.9-1.7-0.9c-0.3,0-0.4,0.4-0.4,0.6c0,0.8,1.9,1.8,1.9,4.8c-0.1,3.8-3.2,6.5-7.4,6.6
		c-1.1,0-1.8-0.1-2.9-0.5l-1.8,2.6c1-0.4,3-0.7,4.9-0.6c3.8,0,8.3,1.2,8.2,5.3c-0.1,4.2-4.7,6.1-8.9,6c-3.2-0.1-7.5-0.9-7.4-3.9
		c0-1.4,0.9-1.9,2-1.9c1.3,0,2.1,0.7,2,1.7c0,0.6-0.2,0.7-0.2,1.2c-0.1,0.9,2.3,1.4,3.9,1.4c2.5,0,5.5-1,5.5-3.5
		c0-2.3-3.6-3-6.3-3.1c-2.5,0-6.5,0.9-6.8,0.9c-0.6,0-0.8-0.4-0.8-0.8c0-0.6,0.4-0.8,0.7-1.3l3.2-4.7c-2.2-1.5-2.8-3-2.9-5.3
		c0-3.8,3.4-6.5,7.2-6.6c1.5,0,2.9,0.5,3.7,0.9l0.7,0.4c0-0.1,0.3-2.6,2.9-2.6c1.1,0,2,0.8,2,1.8C107.4,9.3,106.6,10,105.8,10z
		 M98.3,9.2c-2.1-0.1-3.9,2.3-3.9,5c0,2.6,0.7,5.6,3.7,5.6c2.8,0,3.9-2.9,3.8-5.5C101.8,11.8,101,9.2,98.3,9.2z"/>
	<path d="M117.1,26.6c-5.3,0.1-8.7-4.5-8.7-9.4c0-4.9,3.5-9.3,8.7-9.3c5.4,0,8.5,4.4,8.5,9.3C125.6,22,122.5,26.5,117.1,26.6z
		 M117.1,9.1c-3.8,0-4.8,4.2-4.9,7.8c-0.1,3.7,1.3,8.4,4.9,8.3c4-0.1,4.7-4.5,4.7-8.1C121.7,13.5,121,9.1,117.1,9.1z"/>
	<path d="M132.5,26.6c-2.7,0-5.8-1.2-5.8-3.6c0-1.1,0.8-1.9,1.9-2c1.1,0,1.8,0.7,1.8,2.2c0,1.1,0.2,1.8,2.3,1.9
		c1.8,0.1,3.4-1.1,3.5-3.1c0.1-4.2-8.7-2.6-8.8-8.7c0-3.1,2.9-5.3,6.3-5.3c2.1,0,4.7,0.8,4.7,3c0,1-0.5,1.8-1.8,1.8
		c-1,0-1.7-0.6-1.7-2c0-1-0.3-1.3-1.6-1.4c-1.5-0.1-2.9,1.2-3,2.6c-0.1,4.3,9,2.4,8.9,8.9C139.1,24.3,136.1,26.7,132.5,26.6z"/>
</g>
</svg>
