<?xml version="1.0" encoding="utf-8"?>
<!-- Generator: Adobe Illustrator 24.1.0, SVG Export Plug-In . SVG Version: 6.00 Build 0)  -->
<svg version="1.1" id="Ebene_1" xmlns="http://www.w3.org/2000/svg" xmlns:xlink="http://www.w3.org/1999/xlink" x="0px" y="0px"
	 viewBox="0 0 420 51" style="enable-background:new 0 0 420 51;" xml:space="preserve">
<style type="text/css">
	.st0{fill:#1F1F1F;}
</style>
<g>
	<path class="st0" d="M46.1,21.1h-1.3c-2.9-13.2-7.7-16.2-18-16.4v34.3c0,6,0.9,8,8.9,8.4v1.3H11.1v-1.3c8-0.4,8.9-2.4,8.9-8.4V4.7
		C9.3,4.8,4.3,7.6,1.3,21.1H0L4.1,0h1.3c0.8,2.6,4.8,3.4,15.2,3.4h5.1C36,3.4,39.9,2.6,40.8,0H42L46.1,21.1z"/>
	<path class="st0" d="M79.3,35.4c-1.5,10.5-8.3,14-14.3,14c-8,0-16.1-6.5-16.1-17.6c0-10.2,6.5-17.4,15.7-17.4c8.8,0,14.6,7,13.9,17
		H56c0.4,9.3,5.2,14.4,11.9,14.4c4.2,0,8.7-2.1,10.4-10.6L79.3,35.4z M56,30.1h14.1c1,0,2.1-0.3,2.1-2.1c0-8.1-2.7-12.3-7.6-12.3
		C58.1,15.7,56,22.5,56,30.1z"/>
	<path class="st0" d="M102.5,48.1c4,0,6.7-2.2,6.7-5.4c0-9.3-23.4-6.3-23.4-18.9c0-5.4,4.3-9.4,10.7-9.4c4.7,0,6.8,2.1,9.2,2.1
		c1.6,0,2.3-0.8,2.6-3.7h1.4l3,15h-1.4C104.4,18.4,101,15.7,97,15.7c-3.3,0-6.5,1.9-6.5,5.3c0,9.3,24,6.3,24,18.9
		c0,5.8-5.2,9.5-12.7,9.5c-6.2,0-8.6-2.5-10.4-2.5c-1,0-2.3,0.6-2.2,3.8h-1.3l-3.6-16.8h1.3C93.1,45.5,98.3,48.1,102.5,48.1z"/>
	<path class="st0" d="M128.1,16.4V40c0,4.3,1.5,6.7,4.1,6.7c4.1,0,5.6-5.2,5.6-10.2h1.3c0,9.2-3.1,12.8-8.4,12.8
		c-3,0-8.7-1.1-8.7-8.7V16.4h-4.5v-1.3c8.3,0,9.4-8.1,9.4-11.7h1.3v11.7h11.7v1.3H128.1z"/>
	<path class="st0" d="M160.4,47.5v1.3h-18.7v-1.3c5.4-0.4,6.3-0.5,6.3-6.5V22.9c0-6-0.9-6.1-6.3-6.5v-1.3h12.4V41
		C154.1,47,155,47.1,160.4,47.5z M146.3,5.1c0-2.3,1.8-4.1,4.1-4.1c2.3,0,4.1,1.8,4.1,4.1s-1.8,4.1-4.1,4.1
		C148.1,9.3,146.3,7.5,146.3,5.1z"/>
	<path class="st0" d="M225.9,47.5v1.3h-18.7v-1.3c5.4-0.4,6.3-0.5,6.3-6.5V25.1c0-4.5-1.9-7-5.6-7c-5.2,0-10.2,6.2-10.4,11.9v11
		c0,6,0.9,6.1,6.3,6.5v1.3H185v-1.3c5.4-0.4,6.3-0.5,6.3-6.5V25.1c0-4.5-1.9-7-5.6-7c-5.2,0-10.2,6.2-10.4,11.9v11
		c0,6,0.9,6.1,6.3,6.5v1.3h-18.7v-1.3c5.4-0.4,6.3-0.5,6.3-6.5V22.9c0-6-0.9-6.1-6.3-6.5v-1.3h12.4v10.4c1.9-6,7.3-11.1,12.8-11.1
		c6.1,0,9.4,4.1,9.4,10.6v0.5c1.9-6,7.3-11.1,12.8-11.1c6.1,0,9.4,4.1,9.4,10.6V41C219.6,47,220.5,47.1,225.9,47.5z"/>
	<path class="st0" d="M261.5,31.8c0,10.4-7.5,17.6-16.9,17.6c-9.4,0-16.9-7.3-16.9-17.6c0-10.2,7.5-17.4,16.9-17.4
		C254,14.4,261.5,21.6,261.5,31.8z M254.4,31.8c0-9.7-3.6-16.1-9.8-16.1c-6.2,0-9.8,6.4-9.8,16.1c0,9.8,3.6,16.3,9.8,16.3
		C250.8,48.1,254.4,41.7,254.4,31.8z"/>
	<path class="st0" d="M305.2,47.5v1.3h-18.7v-1.3c5.4-0.4,6.3-0.5,6.3-6.5V25.1c0-4.5-1.9-7-5.6-7c-5.2,0-10.2,6.2-10.4,11.9v11
		c0,6,0.9,6.1,6.3,6.5v1.3h-18.7v-1.3c5.4-0.4,6.3-0.5,6.3-6.5V22.9c0-6-0.9-6.1-6.3-6.5v-1.3h12.4v10.4c1.9-6,7.3-11.1,12.8-11.1
		c6.1,0,9.4,4.1,9.4,10.6V41C298.9,47,299.8,47.1,305.2,47.5z"/>
	<path class="st0" d="M325.6,47.5v1.3h-18.7v-1.3c5.4-0.4,6.3-0.5,6.3-6.5V22.9c0-6-0.9-6.1-6.3-6.5v-1.3h12.4V41
		C319.4,47,320.3,47.1,325.6,47.5z M311.6,5.1c0-2.3,1.8-4.1,4.1-4.1c2.3,0,4.1,1.8,4.1,4.1s-1.8,4.1-4.1,4.1
		C313.4,9.3,311.6,7.5,311.6,5.1z"/>
	<path class="st0" d="M366.4,36.5c0,8.9-1.8,12.8-7.2,12.8c-2.9,0-7.3-1.1-7.3-7.4v-7c-2.5,9.5-9.4,14.4-14.7,14.4
		c-4.4,0-7.6-2.8-7.6-7.1c0-6.8,8.3-10.9,22.3-15.1v-1.6c0-6.6-3.3-10.2-7.8-10.2c-4.8,0-6.9,4-6.9,7.9c0,2,0.5,4,1.6,5.4
		c-5.1,0.3-8-2.5-8-5.7c0-4,4.5-8.7,13.7-8.7c8.2,0,13.6,3.7,13.6,11.3V40c0,3.8,0,6.7,2.8,6.7c3.4,0,4.3-4.6,4.3-10.2H366.4z
		 M351.8,29.5v-1.3c-13,4.1-15.3,8.9-15.3,12.4c0,3.3,2,5,4.5,5C345,45.5,351.3,40.2,351.8,29.5z"/>
	<path class="st0" d="M385.8,47.5v1.3h-18.7v-1.3c5.4-0.4,6.3-0.5,6.3-6.5V11.2c0-6-0.9-6.1-6.3-6.5V3.4h12.4V41
		C379.5,47,380.4,47.1,385.8,47.5z"/>
	<path class="st0" d="M407.8,48.1c4,0,6.7-2.2,6.7-5.4c0-9.3-23.4-6.3-23.4-18.9c0-5.4,4.3-9.4,10.7-9.4c4.7,0,6.8,2.1,9.2,2.1
		c1.6,0,2.3-0.8,2.6-3.7h1.4l3,15h-1.4c-6.9-9.5-10.4-12.1-14.3-12.1c-3.3,0-6.5,1.9-6.5,5.3c0,9.3,24,6.3,24,18.9
		c0,5.8-5.2,9.5-12.7,9.5c-6.2,0-8.6-2.5-10.4-2.5c-1,0-2.3,0.6-2.2,3.8h-1.3l-3.6-16.8h1.3C398.4,45.5,403.5,48.1,407.8,48.1z"/>
</g>
</svg>
